<svg width="1200" height="280" viewBox="0 0 1200 280" fill="none" xmlns="http://www.w3.org/2000/svg">
  <defs>
    <linearGradient id="bg" x1="0" y1="0" x2="1200" y2="280" gradientUnits="userSpaceOnUse">
      <stop offset="0" stop-color="#F8FBFF"/>
      <stop offset="0.52" stop-color="#ECFDF5"/>
      <stop offset="1" stop-color="#EFF6FF"/>
    </linearGradient>
    <linearGradient id="accent" x1="115" y1="56" x2="1080" y2="224" gradientUnits="userSpaceOnUse">
      <stop offset="0" stop-color="#2563EB"/>
      <stop offset="0.5" stop-color="#14B8A6"/>
      <stop offset="1" stop-color="#84CC16"/>
    </linearGradient>
    <filter id="shadow" x="-10%" y="-20%" width="120%" height="150%" color-interpolation-filters="sRGB">
      <feDropShadow dx="0" dy="16" stdDeviation="18" flood-color="#0F172A" flood-opacity="0.16"/>
    </filter>
  </defs>

  <rect width="1200" height="280" rx="34" fill="url(#bg)"/>
  <rect x="24" y="24" width="1152" height="232" rx="26" fill="rgba(255,255,255,0.58)" stroke="#D8E6F3" stroke-width="2"/>
  <path d="M46 226C190 178 283 213 420 176C587 131 678 62 836 83C981 102 1046 181 1154 131" stroke="url(#accent)" stroke-width="4" stroke-linecap="round" opacity="0.35"/>

  <g filter="url(#shadow)">
    <rect x="76" y="70" width="134" height="134" rx="30" fill="#FFFFFF"/>
    <rect x="91" y="85" width="104" height="104" rx="24" fill="#EAF7FF"/>
    <path d="M113 116L143 92L173 116" stroke="url(#accent)" stroke-width="10" stroke-linecap="round" stroke-linejoin="round"/>
    <path d="M113 158L143 182L173 158" stroke="url(#accent)" stroke-width="10" stroke-linecap="round" stroke-linejoin="round"/>
    <path d="M143 96V178" stroke="#0F172A" stroke-width="8" stroke-linecap="round"/>
  </g>

  <text x="250" y="122" fill="#0F172A" font-family="Inter, Segoe UI, Arial, sans-serif" font-size="60" font-weight="850" letter-spacing="0">
    Judah Akinwole
  </text>
  <text x="253" y="169" fill="#2563EB" font-family="Inter, Segoe UI, Arial, sans-serif" font-size="24" font-weight="750" letter-spacing="1.6">
    SENIOR NODE.JS BACKEND DEVELOPER
  </text>
  <text x="253" y="206" fill="#334155" font-family="Inter, Segoe UI, Arial, sans-serif" font-size="20" font-weight="650">
    Transaction Systems • Accounting Platforms • AI Workflows • Operational Dashboards
  </text>

  <g opacity="0.95">
    <rect x="872" y="74" width="244" height="130" rx="24" fill="#FFFFFF" stroke="#CFE0F2"/>
    <text x="900" y="113" fill="#0F766E" font-family="Inter, Segoe UI, Arial, sans-serif" font-size="16" font-weight="800">QUANIAC LLC</text>
    <text x="900" y="148" fill="#0F172A" font-family="Inter, Segoe UI, Arial, sans-serif" font-size="22" font-weight="850">Backend systems</text>
    <text x="900" y="178" fill="#0F172A" font-family="Inter, Segoe UI, Arial, sans-serif" font-size="22" font-weight="850">with product depth</text>
  </g>
</svg>
